# xmcd
#
# Track frame offsets:
#	150
#	14127
#	28970
#	42080
#	58480
#	85492
#	100235
#	113380
#	140705
#	154727
#	178425
#	190162
#	202030
#
# Disc length: 2829
#
# Revision: 2
# Processed by: cddbd v1.5.1PL0 Copyright (c) Steve Scherf et al.
# Submitted via: jetAudio 5
# Normalized: r1:DSETVAR1
#
DISCID=c30b0b0d
DTITLE=Various Artist - Story Of Blues Guitar [CD2]
DYEAR=1900
DGENRE=
TTITLE0=Big Bill Broonzy - Guitar Shuffle
TTITLE1=Big Bill Broonzy - Do Right Blues
TTITLE2=Mississippi Fred McDowell - You Gotta Move
TTITLE3=Mississippi Fred McDowell - Get Right Church
TTITLE4=Mississippi Fred McDowell - Levee Camp Blues
TTITLE5=Sony Terry and Brownie McGhee - Down By The Riverside
TTITLE6=Sony Terry and Brownie McGhee - Walk On
TTITLE7=Sony Terry and Brownie McGhee - Blowin' The Fuses
TTITLE8=Leadbelly - The Galls Pole
TTITLE9=Big Joe Williams - I've Been Bucked and Scorned
TTITLE10=Sippie Wallace - Loving Sam
TTITLE11=John Lee Hooker - Boogie Chillun
TTITLE12=John Lee Hooker - Dimples
EXTD=
EXTT0=
EXTT1=
EXTT2=
EXTT3=
EXTT4=
EXTT5=
EXTT6=
EXTT7=
EXTT8=
EXTT9=
EXTT10=
EXTT11=
EXTT12=
PLAYORDER=
